<svg xmlns="http://www.w3.org/2000/svg"><symbol id="bg-zigzag-fill" viewBox="0 0 1150 34"><path fill="#FFF" d="M1121.252 0c-14.375 0-14.375 14-28.749 14s-14.374-14-28.748-14-14.374 14-28.748 14c-14.375 0-14.375-14-28.75-14-14.374 0-14.374 14-28.748 14S963.135 0 948.761 0s-14.374 14-28.749 14-14.375-14-28.749-14-14.374 14-28.749 14-14.375-14-28.75-14c-14.371 0-14.371 14-28.743 14-14.375 0-14.375-14-28.75-14-14.372 0-14.372 14-28.744 14-14.374 0-14.374-14-28.747-14s-14.373 14-28.747 14C675.66 14 675.66 0 661.287 0c-14.374 0-14.374 14-28.748 14-14.375 0-14.375-14-28.751-14-14.374 0-14.374 14-28.748 14S560.666 0 546.292 0s-14.374 14-28.748 14S503.17 0 488.796 0c-14.375 0-14.375 14-28.75 14-14.376 0-14.376-14-28.753-14-14.375 0-14.375 14-28.75 14S388.168 0 373.792 0c-14.375 0-14.375 14-28.75 14S330.666 0 316.291 0s-14.375 14-28.751 14c-14.376 0-14.376-14-28.753-14-14.374 0-14.374 14-28.747 14-14.375 0-14.375-14-28.75-14s-14.375 14-28.751 14c-14.377 0-14.377-14-28.754-14s-14.377 14-28.755 14c-14.378 0-14.378-14-28.756-14S71.896 14 57.518 14C43.139 14 43.139 0 28.759 0S14.38 14 0 14v20h1150V14c-14.374 0-14.374-14-28.748-14z"/></symbol>
<symbol id="bg-zigzag-line" viewBox="0 0 1150 23"><path fill="#E6E7E8" d="M1150 23c-9.017 0-13.728-4.589-17.514-8.276-3.412-3.323-5.877-5.724-11.234-5.724-5.358 0-7.823 2.401-11.235 5.724-3.786 3.688-8.497 8.276-17.514 8.276s-13.728-4.589-17.514-8.276c-3.412-3.323-5.877-5.724-11.234-5.724s-7.822 2.401-11.234 5.724c-3.786 3.688-8.497 8.276-17.514 8.276s-13.729-4.589-17.515-8.276C1014.08 11.401 1011.615 9 1006.257 9c-5.357 0-7.822 2.401-11.234 5.724-3.787 3.687-8.498 8.276-17.514 8.276s-13.728-4.589-17.514-8.276C956.583 11.401 954.118 9 948.761 9s-7.822 2.401-11.234 5.724C933.74 18.411 929.028 23 920.012 23s-13.729-4.589-17.515-8.276C899.085 11.401 896.62 9 891.263 9s-7.822 2.401-11.234 5.724C876.242 18.411 871.53 23 862.514 23s-13.729-4.589-17.515-8.276C841.587 11.401 839.122 9 833.764 9c-5.355 0-7.82 2.4-11.231 5.723-3.786 3.688-8.497 8.277-17.512 8.277-9.017 0-13.729-4.589-17.515-8.276C784.094 11.401 781.629 9 776.271 9c-5.356 0-7.821 2.401-11.232 5.723-3.786 3.688-8.497 8.277-17.513 8.277-9.017 0-13.729-4.589-17.514-8.277C726.602 11.401 724.137 9 718.779 9s-7.821 2.401-11.233 5.723C703.761 18.411 699.049 23 690.032 23c-9.016 0-13.727-4.589-17.512-8.276C669.109 11.401 666.645 9 661.287 9s-7.822 2.401-11.234 5.724C646.267 18.411 641.556 23 632.539 23s-13.729-4.589-17.515-8.276C611.612 11.401 609.147 9 603.788 9c-5.357 0-7.822 2.401-11.234 5.724C588.768 18.411 584.057 23 575.04 23c-9.016 0-13.728-4.589-17.514-8.276C554.115 11.401 551.65 9 546.292 9s-7.823 2.401-11.234 5.724C531.272 18.411 526.561 23 517.544 23s-13.729-4.589-17.514-8.276C496.619 11.401 494.153 9 488.796 9c-5.358 0-7.823 2.401-11.235 5.724-3.787 3.687-8.499 8.276-17.515 8.276-9.017 0-13.729-4.589-17.516-8.276C439.118 11.401 436.653 9 431.293 9c-5.358 0-7.823 2.401-11.235 5.724C416.272 18.411 411.56 23 402.543 23s-13.729-4.589-17.515-8.276C381.616 11.401 379.151 9 373.792 9c-5.358 0-7.823 2.401-11.235 5.724-3.786 3.687-8.498 8.276-17.515 8.276s-13.729-4.589-17.515-8.276C324.114 11.401 321.649 9 316.291 9s-7.824 2.401-11.236 5.724C301.269 18.411 296.556 23 287.539 23c-9.018 0-13.729-4.589-17.516-8.276C266.611 11.401 264.145 9 258.786 9c-5.357 0-7.822 2.401-11.234 5.724-3.785 3.687-8.497 8.276-17.513 8.276-9.017 0-13.729-4.589-17.515-8.276C209.112 11.401 206.647 9 201.289 9s-7.824 2.401-11.236 5.724C186.267 18.411 181.555 23 172.538 23c-9.018 0-13.73-4.589-17.517-8.276C151.609 11.401 149.144 9 143.784 9s-7.825 2.401-11.238 5.724c-3.787 3.687-8.5 8.276-17.517 8.276-9.018 0-13.73-4.589-17.517-8.276C94.099 11.401 91.633 9 86.273 9s-7.826 2.401-11.239 5.724C71.249 18.411 66.536 23 57.518 23 48.5 23 43.787 18.412 40 14.724 36.586 11.401 34.12 9 28.759 9s-7.827 2.401-11.24 5.724C13.732 18.411 9.019 23 0 23v-9c5.361 0 7.827-2.401 11.241-5.724C15.028 4.588 19.741 0 28.759 0S42.49 4.588 46.278 8.276C49.691 11.599 52.157 14 57.518 14c5.36 0 7.825-2.401 11.238-5.724C72.543 4.589 77.255 0 86.273 0s13.73 4.589 17.517 8.276c3.413 3.323 5.879 5.724 11.239 5.724s7.826-2.401 11.238-5.724C130.054 4.589 134.767 0 143.784 0s13.73 4.589 17.517 8.276c3.412 3.323 5.878 5.724 11.237 5.724 5.358 0 7.824-2.401 11.236-5.724C187.56 4.589 192.272 0 201.289 0c9.017 0 13.729 4.589 17.515 8.276 3.412 3.323 5.877 5.724 11.235 5.724 5.357 0 7.822-2.401 11.234-5.724C245.059 4.589 249.77 0 258.786 0c9.017 0 13.729 4.589 17.516 8.276C279.714 11.599 282.18 14 287.539 14s7.824-2.401 11.236-5.724C302.562 4.589 307.274 0 316.291 0c9.017 0 13.729 4.589 17.515 8.276 3.412 3.323 5.877 5.724 11.236 5.724 5.359 0 7.824-2.401 11.236-5.724C360.063 4.589 364.775 0 373.792 0s13.729 4.589 17.516 8.276C394.72 11.599 397.185 14 402.543 14s7.823-2.401 11.235-5.724C417.565 4.589 422.277 0 431.293 0c9.018 0 13.729 4.589 17.516 8.276 3.412 3.323 5.877 5.724 11.236 5.724 5.358 0 7.823-2.401 11.235-5.724C475.067 4.589 479.779 0 488.796 0c9.016 0 13.728 4.589 17.514 8.276 3.412 3.323 5.877 5.724 11.235 5.724 5.357 0 7.822-2.401 11.234-5.724C532.564 4.589 537.275 0 546.292 0c9.016 0 13.728 4.589 17.514 8.276C567.217 11.599 569.682 14 575.04 14c5.357 0 7.822-2.401 11.234-5.724C590.061 4.589 594.771 0 603.788 0c9.018 0 13.729 4.589 17.516 8.276 3.412 3.323 5.877 5.724 11.235 5.724 5.357 0 7.822-2.401 11.234-5.724C647.56 4.589 652.271 0 661.287 0s13.728 4.589 17.513 8.277C682.211 11.6 684.676 14 690.032 14c5.357 0 7.822-2.401 11.234-5.724C705.052 4.589 709.764 0 718.779 0s13.728 4.589 17.513 8.276c3.412 3.323 5.877 5.724 11.234 5.724 5.356 0 7.821-2.401 11.232-5.723C762.544 4.589 767.255 0 776.271 0c9.017 0 13.729 4.589 17.515 8.276 3.412 3.323 5.877 5.724 11.235 5.724 5.356 0 7.821-2.401 11.232-5.724C820.038 4.589 824.749 0 833.764 0c9.017 0 13.729 4.589 17.515 8.276C854.69 11.599 857.155 14 862.514 14s7.823-2.401 11.235-5.724C877.535 4.589 882.247 0 891.263 0c9.017 0 13.728 4.589 17.514 8.276 3.412 3.323 5.877 5.724 11.235 5.724s7.823-2.401 11.235-5.724C935.033 4.589 939.744 0 948.761 0s13.728 4.589 17.514 8.276c3.412 3.323 5.877 5.724 11.234 5.724s7.822-2.401 11.234-5.724C992.529 4.589 997.24 0 1006.257 0s13.729 4.589 17.515 8.276c3.412 3.323 5.877 5.724 11.235 5.724 5.357 0 7.822-2.401 11.234-5.724 3.786-3.688 8.497-8.276 17.514-8.276s13.728 4.589 17.514 8.276c3.412 3.323 5.877 5.724 11.234 5.724s7.822-2.401 11.234-5.724c3.786-3.688 8.498-8.276 17.515-8.276s13.728 4.589 17.514 8.276C1142.178 11.599 1144.643 14 1150 14v9z"/></symbol>
<symbol id="htmlacademy" viewBox="0 0 60 60"><path fill="#2E368F" d="M30.2 5H30L10.3 7.1v36.2L30 55l19.7-11.7V7.1L30.2 5zm17 36.8L30 52 12.8 41.8V27l17.1 10.2V39l-11.7-7v1.8L30 40.9v1.9l-11.8-7v1.8l11.8 7 11.9-7.1v-7.6l5.3-3.2v15.1zm-.1-17l-4.7 2.8-2.2 1.3-10.3-6.1v1.8l8.8 5.3h-.1l-.2.1-1.3.7-7.3-4.3v1.8l5.8 3.4-1.4.9-4.3-2.6v1.8l2.9 1.7-2.9 1.7-17-10.1 17-10.2 17.2 10zm.1-1.8L29.9 12.8 12.8 23V9.4L30 7.6l17.2 1.8V23z"/></symbol>
<symbol id="icon-feature-1" viewBox="8.014 4.35 31.972 37.301"><path fill="#63d1bb" d="M24 41.65c8.827 0 15.986-7.159 15.986-15.986C31.158 25.664 24 32.822 24 41.65zM12.641 20.78a4.442 4.442 0 0 0 4.44 4.441c.932 0 1.803-.294 2.513-.782l-.036.337c0 2.451 1.99 4.441 4.441 4.441s4.44-1.99 4.44-4.441l-.036-.337a4.396 4.396 0 0 0 2.514.782c2.451 0 4.44-1.99 4.44-4.441a4.418 4.418 0 0 0-2.54-3.997 4.434 4.434 0 0 0 2.54-3.997 4.441 4.441 0 0 0-6.954-3.659l.037-.337a4.441 4.441 0 0 0-8.881 0l.036.337a4.392 4.392 0 0 0-2.513-.781 4.442 4.442 0 0 0-4.44 4.44 4.42 4.42 0 0 0 2.54 3.997 4.42 4.42 0 0 0-2.541 3.997zM24 12.343a4.441 4.441 0 0 1 4.44 4.44 4.441 4.441 0 0 1-8.881 0c0-2.451 1.99-4.44 4.441-4.44zM8.014 25.664c0 8.827 7.158 15.986 15.986 15.986 0-8.828-7.158-15.986-15.986-15.986z"/></symbol>
<symbol id="icon-feature-2" viewBox="0 0 34.373 34.373"><g fill="#63d1bb"><path d="M.286 14.069a17.244 17.244 0 0 0 .008 6.301l4.121-3.21-4.129-3.091zM24.403 1.585C19.62-.623 13.959-.559 9.149 1.992l7.513 5.625 7.741-6.032zM33.901 13.175l-4.811 3.748 4.936 3.695a17.248 17.248 0 0 0-.125-7.443zM9.209 32.414c4.844 2.534 10.724 2.65 15.73.113l-8.096-6.062-7.634 5.949zM7.914 14.433L1.681 9.767c-.32.669-.595 1.356-.825 2.056l5.308 3.974 1.75-1.364zM18.593 25.102l8.336 6.242a17.184 17.184 0 0 0 1.74-1.372l-8.326-6.234-1.75 1.364zM11.413 11.707L4.002 6.158a17.073 17.073 0 0 0-1.269 1.723l6.931 5.189 1.749-1.363zM22.093 22.375l8.092 6.059c.471-.544.904-1.112 1.297-1.701l-7.639-5.721-1.75 1.363zM14.913 8.98L7.196 3.203a17.436 17.436 0 0 0-1.709 1.394l7.676 5.747 1.75-1.364zM25.592 19.649l6.972 5.221c.33-.662.615-1.341.855-2.033l-6.077-4.55-1.75 1.362zM26.448 2.706L.88 22.626c.233.698.513 1.386.839 2.059l26.52-20.663a17.006 17.006 0 0 0-1.791-1.316zM30.743 6.624a17.418 17.418 0 0 0-.939-1.106L2.786 26.567a17.144 17.144 0 0 0 1.279 1.717l27.09-21.108c-.134-.186-.269-.37-.412-.552zM32.298 8.999L5.552 29.838c.544.501 1.114.962 1.708 1.382l25.962-20.228a17.158 17.158 0 0 0-.924-1.993z"/></g></symbol>
<symbol id="icon-feature-3" viewBox="46.212 56.834 46.575 27.332"><path fill="#63d1bb" d="M88.882 56.834H50.116a3.905 3.905 0 0 0-3.904 3.905V80.26a3.905 3.905 0 0 0 3.904 3.905h38.766a3.906 3.906 0 0 0 3.905-3.905V60.739a3.906 3.906 0 0 0-3.905-3.905zm-39.647 24.95V59.551h40.202v22.233H49.235z"/><path fill="#63d1bb" d="M53.14 77.88h32.395V63.456H53.14V77.88zM69.5 65.354a5.315 5.315 0 1 1 0 10.63 5.315 5.315 0 0 1 0-10.63z"/></symbol>
<symbol id="icon-feature-4" viewBox="612.532 500.386 54.156 23.183"><g fill="#63d1bb"><path d="M652.844 506.098c-3.647-.971-7.839-1.667-12.359-1.666a46.394 46.394 0 0 0-7.71.623l-6.784-4.668-13.456.005 5.811 6.184h8.447c-4.58 1.598-6.759 3.515-6.759 3.515l.002 3.777s2.313 1.912 6.931 3.518l-8.623-.005-5.811 6.188 13.455.002 6.816-4.692c2.261.398 4.822.647 7.681.648 4.522-.001 8.712-.697 12.36-1.667-1.176-1.775-1.915-3.743-1.918-5.877.003-2.141.738-4.112 1.917-5.885zM656.267 507.132c-1.284 1.605-1.969 3.25-1.965 4.84-.007 1.597.677 3.238 1.968 4.847 6.399-2.162 10.419-4.841 10.419-4.841s-4.019-2.68-10.422-4.846z"/></g></symbol>
<symbol id="icon-feature-5" viewBox="47.475 50.071 33.05 27.857"><path fill="#63d1bb" d="M80.525 58.808a8.736 8.736 0 0 0-8.736-8.736A8.727 8.727 0 0 0 64 54.865a8.727 8.727 0 0 0-7.789-4.793 8.736 8.736 0 0 0-8.736 8.736c0 9.127 14.657 19.121 16.525 19.121 1.869 0 16.525-9.95 16.525-19.121z"/></symbol>
<symbol id="icon-feature-6" viewBox="239.665 239.757 32.666 32.486"><path fill="#63d1bb" d="M242.56 272.243h12.504v-13.91H242.56v13.91zm28.182-23.62h-7.335c.521-.267.984-.549 1.396-.845 1.588-1.133 2.424-2.57 2.42-3.999.002-1.169-.556-2.202-1.359-2.901a4.585 4.585 0 0 0-3.016-1.121c-1.22-.001-2.352.421-3.32 1.069-1.459.979-2.606 2.451-3.424 4.067-.039.079-.078.157-.115.236a12.944 12.944 0 0 0-1.041-1.792c-.691-.985-1.523-1.86-2.497-2.511-.97-.646-2.103-1.069-3.322-1.069-1.213.004-2.323.514-3.155 1.295-.828.783-1.41 1.885-1.412 3.135-.002.73.211 1.494.649 2.188.552.872 1.424 1.628 2.633 2.248h-6.588c-.878 0-1.591.712-1.591 1.59v5.897h15.396v-7.488h1.873v7.488h15.396v-5.897a1.585 1.585 0 0 0-1.588-1.59m-22.362-2.339c-.622-.391-1-.785-1.22-1.135-.22-.354-.294-.662-.296-.963-.004-.504.248-1.042.691-1.461.437-.415 1.028-.667 1.562-.667h.013c.685 0 1.366.231 2.046.683 1.018.671 1.975 1.85 2.645 3.187.342.676.609 1.39.789 2.087-3.082-.321-5.078-1.002-6.23-1.731m10.537-1.627c.557-.797 1.21-1.466 1.887-1.916.68-.451 1.362-.683 2.047-.683h.006c.574 0 1.117.22 1.494.55.377.336.571.739.573 1.171-.004.512-.272 1.259-1.467 2.132-1.138.825-3.101 1.673-6.127 2.265a10.57 10.57 0 0 1 1.587-3.519m-1.98 27.586h12.506v-13.91h-12.506v13.91z"/></symbol>
<symbol id="icon-flag" viewBox="-11.34 -28.346 46.68 81.691"><path fill="#63D1BB" d="M-3.561-24.455v38.9l38.9-19.451-38.9-19.449zm-7.779 77.801v-81.691h3.805v81.691h-3.805z"/><g><path fill="#231F20" d="M-11.34-28.346h3.805v81.691h-3.805z"/></g></symbol>
<symbol id="icon-interior" viewBox="-259.404 -19.675 40.219 62.411"><g fill="#149080"><path d="M-244.227 18.283c-.286.966-.245 2.191.027 3.639.494 2.635 1.687 6.041 2.358 9.67h5.062c.696-3.641 1.949-7.05 2.471-9.683.287-1.445.33-2.66.041-3.617-.275-.899-.89-1.618-2.021-2.303h-5.997c-1.075.679-1.674 1.391-1.941 2.294zM-232.395 38.278h-13.799c-1.293 0-2.299.976-2.299 2.229v2.229h18.397v-2.229c0-1.253-1.006-2.229-2.299-2.229zM-225.262-17.446h-11.732c0-1.244-1.015-2.229-2.3-2.229-1.283 0-2.3.985-2.3 2.229h-11.737l-6.073 25.517c.794-.461 1.589-.992 2.632-.992 1.359 0 2.243.818 2.924 1.375.682.557 1.162.849 1.447.849.292.001.769-.287 1.451-.836.681-.548 1.564-1.358 2.915-1.358 1.349 0 2.237.806 2.919 1.354.684.549 1.161.84 1.451.84.146 0 .338-.073.58-.214.242-.141.53-.353.872-.626.512-.411 1.139-.967 1.99-1.218.284-.085.593-.136.93-.136 1.347 0 2.238.805 2.92 1.354.683.548 1.159.84 1.451.84.287-.002.766-.296 1.445-.85.684-.554 1.571-1.367 2.925-1.367 1.356 0 2.239.817 2.919 1.371.342.276.631.489.872.631.24.143.431.214.575.214.288 0 .762-.293 1.442-.854.68-.559 1.567-1.384 2.929-1.384 1.044 0 1.839.533 2.632.997l-6.079-25.507zM-235.881 33.82h-6.864c-.657 0-1.15.479-1.15 1.115 0 .635.493 1.113 1.15 1.113h6.9c.655 0 1.15-.479 1.15-1.113 0-.636-.495-1.115-1.15-1.115h-.036zM-239.295 9.336c-.146 0-.338.074-.58.213-.157.094-.37.261-.57.41v3.731h2.299V9.959c-.505-.378-.908-.623-1.149-.623z"/></g></symbol>
<symbol id="icon-map-pin" viewBox="0 0 66 100.801"><path fill="#FFF" d="M56.334 9.228c-12.892-12.305-33.773-12.305-46.667 0-12.891 12.297-12.891 32.248 0 44.542 0 0 23.318 21.832 23.318 47.031 0-25.199 23.343-47.031 23.343-47.031 12.897-12.294 12.897-32.245.006-44.542z"/><path fill="#6BC6B3" d="M47.036 45.522c-.636-3.277.13-6.947.027-10.284-.115-3.755-.713-7.485-.665-11.246.039-3.044.545-6.173-.503-9.091.065-.332.134-.662.195-.995.271-1.463-4.577-.689-5.338.649-.479.393-.726.861-.523 1.339.051.121.097.243.142.365-.917 4.485-2.197 8.827-3.668 13.174-.563 1.663-1.244 3.288-1.817 4.946-.814-1.545-1.638-3.071-2.3-4.728-1.922-4.805-3.656-9.661-6-14.285.266-2.14-4.484-1.916-5.421.044-1.132 2.371-.986 4.763-.613 7.299.42 2.858.494 5.668.528 8.554.066 5.566.502 11.119.584 16.684-.496.552-.646 1.233-.127 1.924.226.302.505.535.799.769 1.265 1.013 4.899.15 4.893-1.779-.02-5.771-.437-11.531-.589-17.299-.015-.565-.025-1.129-.034-1.694.08.203.159.406.24.607.896 2.245 1.833 4.427 3.059 6.514 1.214 2.068 1.824 4.289 2.523 6.547-.265.303-.423.647-.326.991-.055.251.099.409.352.504.894.766 2.578.383 3.513-.01a8.28 8.28 0 0 0 1.155-.593c.483-.297 1.236-.95 1.021-1.622a44.64 44.64 0 0 1-.121-.391c.657-1.776.992-3.625 1.352-5.5.381-2 1.095-3.892 1.812-5.786.073.867.149 1.732.219 2.597.285 3.575.046 7.099.011 10.674a16.22 16.22 0 0 0 .306 3.445c.096.479.514 2.53.394 2.642-.855.79-.606 1.759.539 2.011 1.279.281 2.912-.148 3.877-1.039 1.675-1.548.882-3.98.504-5.937z"/></symbol>
<symbol id="icon-play" viewBox="247.3 382.56 100.678 76.891"><path fill="#63D1BB" d="M344.255 400.708s-.92-7.008-3.785-10.078c-3.632-4.041-7.674-4.066-9.541-4.297-13.326-1.023-33.303-1.023-33.303-1.023h-.051s-19.978 0-33.304 1.023c-1.867.23-5.908.256-9.54 4.297-2.84 3.096-3.786 10.078-3.786 10.078s-.896 8.211-.896 16.422v7.699c0 8.21.947 16.421.947 16.421s.921 7.009 3.785 10.078c3.632 4.041 8.364 3.913 10.487 4.349 7.622.767 32.356 1.022 32.356 1.022s20.003-.025 33.329-1.048c1.867-.23 5.908-.256 9.54-4.298 2.84-3.069 3.786-10.078 3.786-10.078s.946-8.21.946-16.421v-7.699c-.023-8.236-.97-16.447-.97-16.447z"/><path fill="#FFF" d="M297.614 459.449h-.016c-1.015-.011-24.946-.266-32.604-1.037l-.14-.014-.137-.028c-.271-.056-.668-.107-1.126-.167-2.503-.328-7.159-.938-10.839-5.019-3.354-3.616-4.377-10.771-4.483-11.576l-.005-.043c-.039-.342-.965-8.463-.965-16.736v-7.699c0-8.266.875-16.378.912-16.72l.009-.071c.108-.802 1.155-7.928 4.474-11.557 3.996-4.439 8.531-4.899 10.712-5.121.192-.02.37-.037.529-.058l.126-.013c13.277-1.019 33.312-1.031 33.514-1.031h.051c.201 0 20.236.013 33.514 1.031l.126.013c.159.021.337.038.529.058 2.179.221 6.71.682 10.704 5.112 3.354 3.616 4.377 10.771 4.483 11.577l.005.043c.039.342.965 8.459.99 16.753v7.708c0 8.273-.926 16.395-.965 16.736l-.007.053c-.108.805-1.156 7.953-4.478 11.562-3.994 4.435-8.527 4.896-10.707 5.117-.193.02-.371.037-.53.057l-.126.013c-13.276 1.02-33.334 1.057-33.535 1.058l-.015-.001zm-31.944-6.497c7.477.729 31.216.989 31.968.997.657-.001 20.135-.049 33.047-1.036.178-.021.371-.041.58-.062 1.836-.186 4.608-.468 7.186-3.335l.026-.029c1.825-1.974 2.853-6.928 3.075-8.552.059-.514.926-8.358.926-16.08v-7.699c-.023-7.76-.896-15.627-.951-16.109-.32-2.382-1.434-6.789-3.066-8.539l-.035-.038c-2.577-2.868-5.351-3.149-7.186-3.336a34.367 34.367 0 0 1-.58-.062c-13.066-.998-32.834-1.011-33.033-1.011h-.051c-.198 0-19.967.013-33.033 1.011a33.29 33.29 0 0 1-.58.062c-1.835.187-4.607.468-7.186 3.336l-.019.021c-1.828 1.993-2.855 6.924-3.082 8.552-.062.591-.875 8.399-.875 16.089v7.699c0 7.749.871 15.598.926 16.083.32 2.381 1.433 6.789 3.066 8.539l.035.039c2.322 2.584 5.303 2.975 7.479 3.259.481.061.939.121 1.363.201z"/><g><path fill="#FFF" d="M285.733 403.138v35.708l29.747-17.854z"/></g></symbol>
<symbol id="icon-toy" viewBox="226.001 226.19 60 59.62"><path fill="#149080" d="M226.001 269.871l27.438 15.934v-23.346l-27.438-15.94v23.352zm51.346-31.244v2.453c0 1.817-3.458 3.29-7.73 3.29-4.266 0-7.727-1.473-7.727-3.29v-4.059h.024c.26 1.714 3.604 3.073 7.702 3.073 4.272 0 7.729-1.474 7.729-3.285 0-1.819-3.457-3.289-7.729-3.289-.339 0-.675.01-1.002.03l-4.975-2.888v3.086c0 1.817-3.454 3.29-7.723 3.29-2.683 0-5.045-.583-6.433-1.467a3.928 3.928 0 0 0-.732-.586c-.363-.381-.565-.797-.565-1.236v-2.986l-4.807 2.792a21.384 21.384 0 0 0-1.054-.033c-4.267 0-7.727 1.469-7.727 3.289 0 1.811 3.46 3.285 7.727 3.285 4.099 0 7.446-1.358 7.705-3.073h.022v4.059c0 1.817-3.455 3.29-7.727 3.29-4.267 0-7.727-1.473-7.727-3.29v-2.42l-5.952 3.452 27.531 15.986 27.351-15.882-6.181-3.591zm-13.644 10.166c0 1.817-3.46 3.287-7.727 3.287-4.269 0-7.729-1.47-7.729-3.287v-4.059h.024c.26 1.715 3.603 3.076 7.705 3.076 4.101 0 7.443-1.361 7.705-3.076h.021v4.059h.001zm-5.145 13.873v23.144L286 269.871v-23.144l-27.442 15.939zm-2.641-29.904c4.269 0 7.723-1.47 7.723-3.286 0-1.814-3.454-3.287-7.723-3.287-4.27 0-7.729 1.472-7.729 3.287-.001 1.816 3.459 3.286 7.729 3.286"/></symbol>
<symbol id="icon-video" viewBox="0 0 32 32"><path fill="#63d1bb" d="M26 15l6-4v16l-6-4v-8zm-2 0v8a4 4 0 0 1-4 4H4a4 4 0 0 1-4-4v-8a4 4 0 0 1 4-4h10a2 2 0 0 1 2-2V7H5a1 1 0 1 1 0-2h12a1 1 0 0 1 1 1v3a2 2 0 0 1 2 2 4 4 0 0 1 4 4zm-12 0H4v8h8v-8zm8 1a1 1 0 0 0-1-1h-4a1 1 0 1 0 0 2h4a1 1 0 0 0 1-1z"/></symbol>
</svg>
